<?xml version="1.0" encoding="utf-8"?>
<!DOCTYPE svg PUBLIC "-//W3C//DTD SVG 1.1//EN" "http://www.w3.org/Graphics/SVG/1.1/DTD/svg11.dtd">
<svg version="1.1" id="Layer_1" xmlns="http://www.w3.org/2000/svg" xmlns:xlink="http://www.w3.org/1999/xlink" x="0px" y="0px"  viewBox="0 -4 76 76" enable-background="new 0 -4 76 76" xml:space="preserve">
<g>
	<path fill="none" stroke="#000000" stroke-width="4" stroke-miterlimit="10" d="M62.93,13v52c0,2.2-2.034,4-4.531,4H8.535
		C6.038,69,4,67.2,4,65V13c0-2.2,2.038-4,4.535-4h49.863C60.896,9,62.93,10.8,62.93,13z"/>
	<path fill="none" stroke="#000000" stroke-width="4" stroke-miterlimit="10" d="M72,5v52c0,2.2-2.042,4-4.531,4H62.93V13
		c0-2.2-2.034-4-4.531-4H13.066V5c0-2.2,2.042-4,4.535-4h49.867C69.958,1,72,2.8,72,5z"/>
</g>
<polyline fill="none" stroke="#000000" stroke-width="4" stroke-miterlimit="10" points="23.25,39.75 33.25,33.75 43.25,39.75 "/>
</svg>
